<svg width="97" height="33" viewBox="0 0 97 33" fill="none" xmlns="http://www.w3.org/2000/svg">
<path d="M96.7071 25.7071C97.0976 25.3166 97.0976 24.6834 96.7071 24.2929L90.3431 17.9289C89.9526 17.5384 89.3195 17.5384 88.9289 17.9289C88.5384 18.3195 88.5384 18.9526 88.9289 19.3431L94.5858 25L88.9289 30.6569C88.5384 31.0474 88.5384 31.6805 88.9289 32.0711C89.3195 32.4616 89.9526 32.4616 90.3431 32.0711L96.7071 25.7071ZM0 26H96V24H0V26Z" fill="white"/>
<path d="M11.1548 8.63778C11.098 8.06487 10.8542 7.61979 10.4233 7.30256C9.99242 6.98532 9.40767 6.8267 8.66903 6.8267C8.16714 6.8267 7.74337 6.89773 7.39773 7.03977C7.05208 7.17708 6.78693 7.36884 6.60227 7.61506C6.42235 7.86127 6.33239 8.14062 6.33239 8.45312C6.32292 8.71354 6.37737 8.94081 6.49574 9.13494C6.61884 9.32907 6.78693 9.49716 7 9.6392C7.21307 9.77651 7.45928 9.89725 7.73864 10.0014C8.01799 10.1009 8.31629 10.1861 8.63352 10.2571L9.94034 10.5696C10.5748 10.7116 11.1572 10.901 11.6875 11.1378C12.2178 11.3745 12.6771 11.6657 13.0653 12.0114C13.4536 12.357 13.7543 12.7642 13.9673 13.233C14.1851 13.7017 14.2964 14.2391 14.3011 14.8452C14.2964 15.7353 14.0691 16.5071 13.6193 17.1605C13.1742 17.8092 12.5303 18.3134 11.6875 18.6733C10.8494 19.0284 9.83854 19.206 8.65483 19.206C7.48059 19.206 6.45786 19.026 5.58665 18.6662C4.72017 18.3063 4.04309 17.7737 3.5554 17.0682C3.07244 16.358 2.81913 15.4796 2.79545 14.4332H5.77131C5.80445 14.9209 5.94413 15.3281 6.19034 15.6548C6.44129 15.9768 6.77509 16.2206 7.19176 16.3864C7.61316 16.5473 8.08902 16.6278 8.61932 16.6278C9.14015 16.6278 9.59233 16.5521 9.97585 16.4006C10.3641 16.2491 10.6648 16.0384 10.8778 15.7685C11.0909 15.4986 11.1974 15.1884 11.1974 14.8381C11.1974 14.5114 11.1004 14.2367 10.9062 14.0142C10.7169 13.7917 10.4375 13.6023 10.0682 13.446C9.7036 13.2898 9.25616 13.1477 8.72585 13.0199L7.14205 12.6222C5.91572 12.3239 4.94744 11.8575 4.23722 11.223C3.52699 10.5885 3.17424 9.7339 3.17898 8.65909C3.17424 7.77841 3.40862 7.009 3.8821 6.35085C4.36032 5.69271 5.0161 5.17898 5.84943 4.80966C6.68277 4.44034 7.62973 4.25568 8.69034 4.25568C9.76989 4.25568 10.7121 4.44034 11.517 4.80966C12.3267 5.17898 12.9564 5.69271 13.4062 6.35085C13.8561 7.009 14.0881 7.77131 14.1023 8.63778H11.1548ZM19.6438 19L15.4819 4.45455H18.8413L21.2489 14.5611H21.3697L24.0259 4.45455H26.9023L29.5515 14.5824H29.6793L32.087 4.45455H35.4464L31.2844 19H28.2873L25.5174 9.49006H25.4038L22.641 19H19.6438ZM40.1676 4.45455V19H37.0923V4.45455H40.1676ZM42.1438 6.99006V4.45455H54.0898V6.99006H49.6367V19H46.5969V6.99006H42.1438ZM68.2269 9.54688H65.1161C65.0593 9.14441 64.9433 8.78693 64.7681 8.47443C64.5929 8.1572 64.368 7.88731 64.0934 7.66477C63.8188 7.44223 63.5015 7.27178 63.1417 7.15341C62.7866 7.03504 62.4007 6.97585 61.984 6.97585C61.2312 6.97585 60.5754 7.16288 60.0167 7.53693C59.458 7.90625 59.0247 8.44602 58.717 9.15625C58.4092 9.86174 58.2553 10.7187 58.2553 11.7273C58.2553 12.7642 58.4092 13.6354 58.717 14.3409C59.0295 15.0464 59.4651 15.5791 60.0238 15.9389C60.5825 16.2988 61.2288 16.4787 61.9627 16.4787C62.3746 16.4787 62.7558 16.4242 63.1062 16.3153C63.4613 16.2064 63.7762 16.0478 64.0508 15.8395C64.3254 15.6264 64.5527 15.3684 64.7326 15.0653C64.9173 14.7623 65.0451 14.4167 65.1161 14.0284L68.2269 14.0426C68.1464 14.7102 67.9452 15.3542 67.6232 15.9744C67.306 16.59 66.8775 17.1416 66.3377 17.6293C65.8027 18.1122 65.1635 18.4957 64.4201 18.7798C63.6815 19.0592 62.8458 19.1989 61.913 19.1989C60.6156 19.1989 59.4556 18.9053 58.4329 18.3182C57.4149 17.7311 56.61 16.8812 56.0181 15.7685C55.431 14.6558 55.1374 13.3087 55.1374 11.7273C55.1374 10.1411 55.4357 8.79167 56.0323 7.67898C56.6289 6.56629 57.4386 5.71875 58.4613 5.13636C59.484 4.54924 60.6346 4.25568 61.913 4.25568C62.7558 4.25568 63.5371 4.37405 64.2567 4.6108C64.9812 4.84754 65.6228 5.19318 66.1815 5.64773C66.7402 6.09754 67.1947 6.64915 67.5451 7.30256C67.9002 7.95597 68.1275 8.70407 68.2269 9.54688ZM70.4322 19V4.45455H73.5075V10.456H79.7504V4.45455H82.8185V19H79.7504V12.9915H73.5075V19H70.4322Z" fill="white"/>
</svg>
